<svg xmlns="http://www.w3.org/2000/svg" width="24" height="25"><path fill-rule="evenodd" fill="#37474F" d="M12 .736C5.4.736 0 6.191 0 12.86c0 5.152 3.2 9.547 7.65 11.315.45-.101.85-.505.85-1.01v-2.223H7.2c-.95 0-1.75-.455-2.15-1.162-.1-.202-.2-.454-.3-.707-.2-.556-.45-1.162-.95-1.515-.2-.152-.3-.455-.25-.708.1-.252.35-.454.8-.404.5.051 1.25.606 1.7 1.213.4.505.7.808 1.3.808h.15c.45 0 1.55 0 1.75-.202.15-.202.25-.354.4-.505-3-.607-4.7-2.375-4.7-5.052 0-.909.25-1.818.8-2.627-.2-.758-.65-2.728.3-3.586l.15-.152h.2c1.3 0 2.25.556 2.85 1.01a7.931 7.931 0 0 1 5.5 0c.55-.454 1.5-1.01 2.85-1.01h.2l.15.152c.95.909.5 2.828.3 3.586.5.809.8 1.718.8 2.627 0 2.677-1.7 4.445-4.65 5.052.75.808 1.15 2.02 1.15 2.98v2.475c0 .505.35.91.85 1.011 4.4-1.819 7.6-6.214 7.6-11.366C24 6.191 18.6.736 12 .736z"/></svg>