<svg xmlns="http://www.w3.org/2000/svg" width="19" height="24"><path fill-rule="evenodd" fill="#37474F" d="M16.7.498l-1.533.263 1.664 9.084 1.419-.186L16.7.498zm-5.475 2.226l-1.432.862 5.096 7.461 1.258-.777-4.922-7.546zm-4.583 4.33l-.84 1.332 7.687 4.638.699-1.207-7.546-4.763zm-2.207 4.674l-.373 1.496 8.858 2.243.14-1.344-8.625-2.395zM.749 14.022v9.471l14.939.008v-.008c.015 0 .049-9.471.049-9.471h-1.499v7.982H2.248v-7.982H.749zm3.073 1.673l-.125 1.49 9.042.828.101-1.247-9.018-1.071zm-.125 3.316l.05 1.496 8.992-.035v-1.461H3.697z"/></svg>