<svg xmlns="http://www.w3.org/2000/svg" width="26" height="21"><path fill-rule="evenodd" fill="#37474F" d="M25.496 2.676c-.921.412-1.909.689-2.947.816A5.183 5.183 0 0 0 24.805.63a10.218 10.218 0 0 1-3.258 1.254A5.098 5.098 0 0 0 17.804.25c-2.834 0-5.13 2.317-5.13 5.174 0 .405.045.799.134 1.178-4.263-.215-8.043-2.275-10.574-5.405a5.198 5.198 0 0 0-.694 2.602c0 1.795.904 3.378 2.282 4.307a5.065 5.065 0 0 1-2.323-.648v.066c0 2.507 1.768 4.596 4.113 5.073a5.053 5.053 0 0 1-2.318.088c.655 2.053 2.549 3.552 4.793 3.594a10.234 10.234 0 0 1-6.37 2.213c-.416 0-.823-.024-1.224-.072a14.419 14.419 0 0 0 7.863 2.324c9.436 0 14.596-7.883 14.596-14.718 0-.225-.005-.45-.015-.67a10.472 10.472 0 0 0 2.559-2.68z"/></svg>